<?xml version="1.0" encoding="UTF-8" standalone="no"?>
<!-- Generator: Adobe Illustrator 24.0.1, SVG Export Plug-In . SVG Version: 6.00 Build 0)  -->

<svg
   version="1.1"
   id="Layer_1"
   x="0px"
   y="0px"
   viewBox="0 0 500 150"
   style="enable-background:new 0 0 500 150;"
   xml:space="preserve"
   sodipodi:docname="jakarta-ee-logo-color.svg"
   inkscape:version="1.1.2 (b8e25be8, 2022-02-05)"
   xmlns:inkscape="http://www.inkscape.org/namespaces/inkscape"
   xmlns:sodipodi="http://sodipodi.sourceforge.net/DTD/sodipodi-0.dtd"
   xmlns="http://www.w3.org/2000/svg"
   xmlns:svg="http://www.w3.org/2000/svg"><defs
   id="defs182" /><sodipodi:namedview
   id="namedview180"
   pagecolor="#505050"
   bordercolor="#eeeeee"
   borderopacity="1"
   inkscape:pageshadow="0"
   inkscape:pageopacity="0"
   inkscape:pagecheckerboard="0"
   showgrid="false"
   inkscape:zoom="2.944"
   inkscape:cx="266.9837"
   inkscape:cy="78.974185"
   inkscape:window-width="1685"
   inkscape:window-height="1081"
   inkscape:window-x="47"
   inkscape:window-y="25"
   inkscape:window-maximized="0"
   inkscape:current-layer="Layer_1" />
<style
   type="text/css"
   id="style143">
	.st0{fill:#FDB940;}
	.st1{fill:#FEB322;}
	.st2{fill:#F98200;}
	.st3{fill:#1B208B;}
</style>
<g
   id="g173">
	<g
   id="g163">
		<path
   class="st0"
   d="m 157.80739,76.49076 c 1.23,1.75 3.37,3.11 6.16,3.11 3.5,0 7.98,-2.14 7.98,-8.44 v -31.14 h 7.01 v 31.86 c 0,9.21 -7.33,14.73 -14.8,14.73 -5.32,0 -9.41,-2.47 -12,-6.03 z"
   id="path145" />
		<path
   class="st0"
   d="m 211.86739,75.91076 h -17.52 l -3.57,10.32 h -7.4 l 16.81,-46.2 h 5.84 l 16.81,46.2 h -7.4 z m -2.02,-6.23 -6.68,-20.18 h -0.13 l -6.68,20.18 z"
   id="path147" />
		<path
   class="st0"
   d="m 227.76739,40.02076 h 7.01 v 23.82 h 0.13 l 19.01,-23.82 h 8.31 l -14.8,18.23 16.35,27.97 h -8.31 l -12.59,-22.58 -8.11,8.5 v 14.08 h -7.01 v -46.2 z"
   id="path149" />
		<path
   class="st0"
   d="m 292.33739,75.91076 h -17.52 l -3.57,10.32 h -7.4 l 16.81,-46.2 h 5.84 l 16.81,46.2 h -7.4 z m -2.01,-6.23 -6.68,-20.18 h -0.13 l -6.68,20.18 z"
   id="path151" />
		<path
   class="st0"
   d="m 308.23739,40.02076 h 18.04 c 3.89,0 6.94,0.91 9.41,3.05 2.6,2.21 4.61,5.71 4.61,9.86 0,5.97 -3.37,10.84 -8.95,12.78 l 10.71,20.51 h -8.31 l -9.54,-19.73 h -8.96 v 19.73 h -7.01 z m 7.01,20.25 h 10.58 c 5.26,0 7.85,-3.44 7.85,-7.33 0,-2.4 -0.91,-4.22 -2.34,-5.26 -1.3,-0.97 -2.73,-1.43 -5.13,-1.43 h -10.97 v 14.02 z"
   id="path153" />
		<path
   class="st0"
   d="m 354.51739,46.25076 h -12.65 v -6.23 h 32.32 v 6.23 h -12.65 v 39.97 h -7.01 v -39.97 z"
   id="path155" />
		<path
   class="st0"
   d="m 398.00739,75.91076 h -17.52 l -3.57,10.32 h -7.4 l 16.81,-46.2 h 5.84 l 16.81,46.2 h -7.4 z m -2.02,-6.23 -6.68,-20.18 h -0.13 l -6.68,20.18 z"
   id="path157" />
		<path
   class="st0"
   d="m 429.47739,40.02076 h 29.53 v 6.62 h -22.52 v 13.17 h 19.21 v 6.23 h -19.21 v 13.56 h 22.52 v 6.62 h -29.53 z"
   id="path159" />
		<path
   class="st0"
   d="m 465.56739,40.02076 h 29.53 v 6.62 h -22.52 v 13.17 h 19.21 v 6.23 h -19.21 v 13.56 h 22.52 v 6.62 h -29.53 z"
   id="path161" />
	</g>
	<path
   class="st0"
   d="M139.98,6.29l-33.55,36.74c-0.4,18.63-4.93,46.68-24.69,72.31l29.19,7.29   C159.63,76.78,139.98,6.29,139.98,6.29z"
   id="path165" />
	<path
   class="st1"
   d="M106.43,43.03c0.28-12.86-1.41-21.24-1.41-21.24l-74.04,81.06l50.63,12.65c0.04-0.05,0.08-0.1,0.12-0.16   l-33.67-8.41L106.43,43.03z"
   id="path167" />
	<path
   class="st2"
   d="M48.07,106.93l33.67,8.41c19.76-25.63,24.29-53.68,24.69-72.31L48.07,106.93z"
   id="path169" />
	<path
   class="st3"
   d="M94.9,123.77c2.93,0,5.81,0.14,8.64,0.4l-95.5-23.56c0,0,17.77,5.89,39.24,38   C58.63,129.54,75.75,123.77,94.9,123.77z"
   id="path171" />
</g>
<g
   id="g177">
	<path
   class="st0"
   d="m 403.30739,40.12076 c 0,-0.1 0.05,-0.15 0.15,-0.15 h 5.36 c 0.11,0 0.17,0.05 0.17,0.15 v 0.75 c 0,0.09 -0.05,0.14 -0.15,0.14 h -1.83 c -0.07,0 -0.11,0.03 -0.11,0.09 v 5.79 c 0,0.11 -0.05,0.17 -0.14,0.17 h -1.15 c -0.08,0 -0.12,-0.05 -0.12,-0.15 v -5.79 c 0,-0.07 -0.04,-0.11 -0.11,-0.11 h -1.93 c -0.1,0 -0.15,-0.05 -0.15,-0.14 v -0.75 z m 6.7,6.88 c -0.04,-0.04 -0.05,-0.08 -0.05,-0.15 v -6.72 c 0,-0.11 0.05,-0.17 0.15,-0.17 h 1.62 c 0.06,0 0.11,0.01 0.14,0.03 0.03,0.02 0.05,0.06 0.06,0.11 l 1.68,4.51 c 0.04,0.1 0.09,0.1 0.14,-0.02 l 1.63,-4.45 c 0.03,-0.12 0.09,-0.18 0.18,-0.18 h 1.68 c 0.08,0 0.12,0.05 0.12,0.15 v 6.74 c 0,0.07 -0.02,0.12 -0.05,0.15 -0.03,0.03 -0.08,0.05 -0.15,0.05 h -1.02 c -0.07,0 -0.12,-0.01 -0.15,-0.04 -0.03,-0.03 -0.04,-0.07 -0.04,-0.13 v -5 c 0,-0.04 -0.01,-0.06 -0.02,-0.06 -0.02,0 -0.03,0.02 -0.05,0.06 l -1.82,5.03 c -0.03,0.09 -0.09,0.14 -0.18,0.14 h -0.69 c -0.1,0 -0.17,-0.05 -0.2,-0.14 l -1.8,-4.97 c -0.01,-0.04 -0.03,-0.06 -0.05,-0.06 -0.02,0 -0.03,0.03 -0.03,0.08 v 4.93 c 0,0.05 -0.01,0.09 -0.03,0.11 -0.02,0.03 -0.07,0.04 -0.14,0.04 h -0.81 c -0.04,0.02 -0.09,0 -0.12,-0.04 z"
   id="path175" />
</g>
<text
   xml:space="preserve"
   style="font-style:normal;font-variant:normal;font-weight:normal;font-stretch:normal;font-size:53.3333px;line-height:1.25;font-family:'Apple Color Emoji';-inkscape-font-specification:'Apple Color Emoji';fill:#000080;fill-opacity:1;stroke:none"
   x="147.07881"
   y="131.79347"
   id="text2779"><tspan
     sodipodi:role="line"
     id="tspan2777"
     x="147.07881"
     y="131.79347">Starter</tspan></text></svg>
